<svg width="16" height="16" viewBox="0 0 16 16" fill="none" xmlns="http://www.w3.org/2000/svg">
<g clip-path="url(#clip0_4118_30)">
<path fill-rule="evenodd" clip-rule="evenodd" d="M5.33337 1.83331C5.11236 1.83331 4.9004 1.92111 4.74412 2.07739C4.58784 2.23367 4.50004 2.44563 4.50004 2.66665V14.1666H11.5V2.66665C11.5 2.44563 11.4122 2.23367 11.256 2.07739C11.0997 1.92111 10.8877 1.83331 10.6667 1.83331H5.33337ZM12.5 5.49998V2.66665C12.5 2.18042 12.3069 1.7141 11.9631 1.37028C11.6193 1.02647 11.1529 0.833313 10.6667 0.833313H5.33337C4.84714 0.833313 4.38083 1.02647 4.03701 1.37028C3.69319 1.7141 3.50004 2.18042 3.50004 2.66665V7.49998H2.66671C2.18048 7.49998 1.71416 7.69313 1.37034 8.03695C1.02653 8.38077 0.833374 8.84708 0.833374 9.33331V13.3333C0.833374 13.8195 1.02653 14.2859 1.37034 14.6297C1.71416 14.9735 2.18048 15.1666 2.66671 15.1666H13.3334C13.8196 15.1666 14.2859 14.9735 14.6297 14.6297C14.9736 14.2859 15.1667 13.8195 15.1667 13.3333V7.33331C15.1667 6.84708 14.9736 6.38077 14.6297 6.03695C14.2859 5.69313 13.8196 5.49998 13.3334 5.49998H12.5ZM12.5 6.49998V14.1666H13.3334C13.5544 14.1666 13.7663 14.0788 13.9226 13.9226C14.0789 13.7663 14.1667 13.5543 14.1667 13.3333V7.33331C14.1667 7.1123 14.0789 6.90034 13.9226 6.74406C13.7663 6.58778 13.5544 6.49998 13.3334 6.49998H12.5ZM3.50004 8.49998H2.66671C2.44569 8.49998 2.23373 8.58778 2.07745 8.74406C1.92117 8.90034 1.83337 9.1123 1.83337 9.33331V13.3333C1.83337 13.5543 1.92117 13.7663 2.07745 13.9226C2.23373 14.0788 2.44569 14.1666 2.66671 14.1666H3.50004V8.49998ZM6.16671 3.99998C6.16671 3.72384 6.39056 3.49998 6.66671 3.49998H9.33337C9.60952 3.49998 9.83337 3.72384 9.83337 3.99998C9.83337 4.27612 9.60952 4.49998 9.33337 4.49998H6.66671C6.39056 4.49998 6.16671 4.27612 6.16671 3.99998ZM6.16671 6.66665C6.16671 6.3905 6.39056 6.16665 6.66671 6.16665H9.33337C9.60952 6.16665 9.83337 6.3905 9.83337 6.66665C9.83337 6.94279 9.60952 7.16665 9.33337 7.16665H6.66671C6.39056 7.16665 6.16671 6.94279 6.16671 6.66665ZM6.16671 9.33331C6.16671 9.05717 6.39056 8.83331 6.66671 8.83331H9.33337C9.60952 8.83331 9.83337 9.05717 9.83337 9.33331C9.83337 9.60945 9.60952 9.83331 9.33337 9.83331H6.66671C6.39056 9.83331 6.16671 9.60945 6.16671 9.33331ZM6.16671 12C6.16671 11.7238 6.39056 11.5 6.66671 11.5H9.33337C9.60952 11.5 9.83337 11.7238 9.83337 12C9.83337 12.2761 9.60952 12.5 9.33337 12.5H6.66671C6.39056 12.5 6.16671 12.2761 6.16671 12Z" fill="#869198"/>
</g>
<defs>
<clipPath id="clip0_4118_30">
<rect width="16" height="16" fill="white"/>
</clipPath>
</defs>
</svg>
