<svg width="32" height="32" viewBox="0 0 32 32" fill="none" xmlns="http://www.w3.org/2000/svg">
<path fill-rule="evenodd" clip-rule="evenodd" d="M16 3.66675C9.18851 3.66675 3.66669 9.18857 3.66669 16.0001C3.66669 22.8116 9.18851 28.3334 16 28.3334C22.8115 28.3334 28.3333 22.8116 28.3333 16.0001C28.3333 9.18857 22.8115 3.66675 16 3.66675ZM1.66669 16.0001C1.66669 8.084 8.08394 1.66675 16 1.66675C23.9161 1.66675 30.3333 8.084 30.3333 16.0001C30.3333 23.9162 23.9161 30.3334 16 30.3334C8.08394 30.3334 1.66669 23.9162 1.66669 16.0001ZM16 9.66675C16.5523 9.66675 17 10.1145 17 10.6667V16.0001C17 16.5524 16.5523 17.0001 16 17.0001C15.4477 17.0001 15 16.5524 15 16.0001V10.6667C15 10.1145 15.4477 9.66675 16 9.66675ZM15 21.3334C15 20.7811 15.4477 20.3334 16 20.3334H16.0134C16.5656 20.3334 17.0134 20.7811 17.0134 21.3334C17.0134 21.8857 16.5656 22.3334 16.0134 22.3334H16C15.4477 22.3334 15 21.8857 15 21.3334Z" fill="white"/>
</svg>
