<svg width="32" height="32" viewBox="0 0 32 32" fill="none" xmlns="http://www.w3.org/2000/svg">
<path fill-rule="evenodd" clip-rule="evenodd" d="M10.6667 1.66675C11.219 1.66675 11.6667 2.11446 11.6667 2.66675V4.33341H20.3333V2.66675C20.3333 2.11446 20.781 1.66675 21.3333 1.66675C21.8856 1.66675 22.3333 2.11446 22.3333 2.66675V4.33341H25.3333C27.3584 4.33341 29 5.97504 29 8.00008V26.6667C29 28.6918 27.3584 30.3334 25.3333 30.3334H6.66667C4.64162 30.3334 3 28.6918 3 26.6667V8.00008C3 5.97504 4.64162 4.33341 6.66667 4.33341H9.66667V2.66675C9.66667 2.11446 10.1144 1.66675 10.6667 1.66675ZM6.66667 6.33341C5.74619 6.33341 5 7.07961 5 8.00008V26.6667C5 27.5872 5.74619 28.3334 6.66667 28.3334H25.3333C26.2538 28.3334 27 27.5872 27 26.6667V8.00008C27 7.07961 26.2538 6.33341 25.3333 6.33341H6.66667ZM16 11.6667C15.0795 11.6667 14.3333 12.4129 14.3333 13.3334C14.3333 14.2539 15.0795 15.0001 16 15.0001C16.9205 15.0001 17.6667 14.2539 17.6667 13.3334C17.6667 12.4129 16.9205 11.6667 16 11.6667ZM12.3333 13.3334C12.3333 11.3084 13.975 9.66675 16 9.66675C18.025 9.66675 19.6667 11.3084 19.6667 13.3334C19.6667 15.3585 18.025 17.0001 16 17.0001C13.975 17.0001 12.3333 15.3585 12.3333 13.3334ZM9.40728 21.4074C10.0949 20.7197 11.0275 20.3334 12 20.3334H20C20.9725 20.3334 21.9051 20.7197 22.5927 21.4074C23.2804 22.095 23.6667 23.0276 23.6667 24.0001C23.6667 24.5524 23.219 25.0001 22.6667 25.0001C22.1144 25.0001 21.6667 24.5524 21.6667 24.0001C21.6667 23.5581 21.4911 23.1341 21.1785 22.8216C20.866 22.509 20.442 22.3334 20 22.3334H12C11.558 22.3334 11.1341 22.509 10.8215 22.8216C10.5089 23.1341 10.3333 23.5581 10.3333 24.0001C10.3333 24.5524 9.88562 25.0001 9.33333 25.0001C8.78105 25.0001 8.33333 24.5524 8.33333 24.0001C8.33333 23.0276 8.71964 22.095 9.40728 21.4074Z" fill="white"/>
</svg>
