<svg width="32" height="32" viewBox="0 0 32 32" fill="none" xmlns="http://www.w3.org/2000/svg">
<path fill-rule="evenodd" clip-rule="evenodd" d="M9.33335 3.66675C9.24495 3.66675 9.16016 3.70187 9.09765 3.76438C9.03514 3.82689 9.00002 3.91168 9.00002 4.00008V15.0001H23V4.00008C23 3.91167 22.9649 3.82689 22.9024 3.76438C22.8399 3.70187 22.7551 3.66675 22.6667 3.66675H19.6667V8.00008C19.6667 8.55237 19.219 9.00008 18.6667 9.00008C18.1144 9.00008 17.6667 8.55237 17.6667 8.00008V3.66675H14.3334V5.33341C14.3334 5.8857 13.8856 6.33341 13.3334 6.33341C12.7811 6.33341 12.3334 5.8857 12.3334 5.33341V3.66675H9.33335ZM9.33335 1.66675C8.71451 1.66675 8.12102 1.91258 7.68344 2.35017C7.24585 2.78775 7.00002 3.38124 7.00002 4.00008V15.2252C6.76099 15.3386 6.54075 15.4929 6.3501 15.6835C5.91252 16.1211 5.66669 16.7146 5.66669 17.3334V18.6667C5.66669 19.6392 6.053 20.5718 6.74063 21.2595C7.42826 21.9471 8.36089 22.3334 9.33335 22.3334H12C12.0884 22.3334 12.1732 22.3685 12.2357 22.431C12.2982 22.4936 12.3334 22.5783 12.3334 22.6667V26.5334C12.3334 27.5059 12.7197 28.4385 13.4073 29.1261C14.0949 29.8138 15.0276 30.2001 16 30.2001C16.9725 30.2001 17.9051 29.8138 18.5927 29.1261C19.2804 28.4385 19.6667 27.5059 19.6667 26.5334V22.6667C19.6667 22.5783 19.7018 22.4936 19.7643 22.431C19.8268 22.3685 19.9116 22.3334 20 22.3334H22.6667C23.6391 22.3334 24.5718 21.9471 25.2594 21.2595C25.947 20.5718 26.3334 19.6392 26.3334 18.6667V17.3334C26.3334 16.7146 26.0875 16.1211 25.6499 15.6835C25.4593 15.4929 25.2391 15.3386 25 15.2252V4.00008C25 3.38124 24.7542 2.78775 24.3166 2.35017C23.879 1.91258 23.2855 1.66675 22.6667 1.66675H9.33335ZM8.00002 17.0001C7.91162 17.0001 7.82683 17.0352 7.76432 17.0977C7.70181 17.1602 7.66669 17.245 7.66669 17.3334V18.6667C7.66669 19.1088 7.84228 19.5327 8.15484 19.8453C8.4674 20.1578 8.89133 20.3334 9.33335 20.3334H12C12.6189 20.3334 13.2123 20.5792 13.6499 21.0168C14.0875 21.4544 14.3334 22.0479 14.3334 22.6667V26.5334C14.3334 26.9754 14.5089 27.3994 14.8215 27.7119C15.1341 28.0245 15.558 28.2001 16 28.2001C16.442 28.2001 16.866 28.0245 17.1785 27.7119C17.4911 27.3994 17.6667 26.9754 17.6667 26.5334V22.6667C17.6667 22.0479 17.9125 21.4544 18.3501 21.0168C18.7877 20.5792 19.3812 20.3334 20 20.3334H22.6667C23.1087 20.3334 23.5326 20.1578 23.8452 19.8453C24.1578 19.5327 24.3334 19.1088 24.3334 18.6667V17.3334C24.3334 17.245 24.2982 17.1602 24.2357 17.0977C24.1732 17.0352 24.0884 17.0001 24 17.0001H8.00002Z" fill="white"/>
</svg>
