<svg width="32" height="32" viewBox="0 0 32 32" fill="none" xmlns="http://www.w3.org/2000/svg">
<path fill-rule="evenodd" clip-rule="evenodd" d="M2.74063 6.74069C3.42826 6.05306 4.36089 5.66675 5.33335 5.66675H26.6667C27.6391 5.66675 28.5718 6.05306 29.2594 6.74069C29.947 7.42832 30.3334 8.36095 30.3334 9.33341V12.0001C30.3334 12.5524 29.8856 13.0001 29.3334 13.0001C28.5377 13.0001 27.7746 13.3162 27.212 13.8788C26.6494 14.4414 26.3334 15.2044 26.3334 16.0001C26.3334 16.7957 26.6494 17.5588 27.212 18.1214C27.7746 18.684 28.5377 19.0001 29.3334 19.0001C29.8856 19.0001 30.3334 19.4478 30.3334 20.0001V22.6667C30.3334 23.6392 29.947 24.5718 29.2594 25.2595C28.5718 25.9471 27.6391 26.3334 26.6667 26.3334H5.33335C4.36089 26.3334 3.42826 25.9471 2.74063 25.2595C2.053 24.5718 1.66669 23.6392 1.66669 22.6667V20.0001C1.66669 19.4478 2.1144 19.0001 2.66669 19.0001C3.46234 19.0001 4.2254 18.684 4.78801 18.1214C5.35062 17.5588 5.66669 16.7957 5.66669 16.0001C5.66669 15.2044 5.35062 14.4414 4.78801 13.8788C4.2254 13.3162 3.46234 13.0001 2.66669 13.0001C2.1144 13.0001 1.66669 12.5524 1.66669 12.0001V9.33341C1.66669 8.36095 2.053 7.42832 2.74063 6.74069ZM18.3334 24.3334V22.6667C18.3334 22.1145 17.8856 21.6667 17.3334 21.6667C16.7811 21.6667 16.3334 22.1145 16.3334 22.6667V24.3334H5.33335C4.89133 24.3334 4.4674 24.1578 4.15484 23.8453C3.84228 23.5327 3.66669 23.1088 3.66669 22.6667V20.8991C4.62013 20.7044 5.50384 20.234 6.20222 19.5356C7.1399 18.5979 7.66669 17.3262 7.66669 16.0001C7.66669 14.674 7.1399 13.4022 6.20222 12.4645C5.50384 11.7662 4.62013 11.2957 3.66669 11.1011V9.33341C3.66669 8.89139 3.84228 8.46746 4.15484 8.1549C4.4674 7.84234 4.89133 7.66675 5.33335 7.66675H16.3334V9.33341C16.3334 9.8857 16.7811 10.3334 17.3334 10.3334C17.8856 10.3334 18.3334 9.8857 18.3334 9.33341V7.66675H26.6667C27.1087 7.66675 27.5326 7.84234 27.8452 8.1549C28.1578 8.46746 28.3334 8.89139 28.3334 9.33341V11.1011C27.3799 11.2957 26.4962 11.7662 25.7978 12.4645C24.8601 13.4022 24.3334 14.674 24.3334 16.0001C24.3334 17.3262 24.8601 18.5979 25.7978 19.5356C26.4962 20.234 27.3799 20.7044 28.3334 20.8991V22.6667C28.3334 23.1088 28.1578 23.5327 27.8452 23.8453C27.5326 24.1578 27.1087 24.3334 26.6667 24.3334H18.3334ZM17.3334 13.6667C17.8856 13.6667 18.3334 14.1145 18.3334 14.6667V17.3334C18.3334 17.8857 17.8856 18.3334 17.3334 18.3334C16.7811 18.3334 16.3334 17.8857 16.3334 17.3334V14.6667C16.3334 14.1145 16.7811 13.6667 17.3334 13.6667Z" fill="white"/>
</svg>
